<?xml version="1.0" encoding="utf-8" ?><svg xmlns="http://www.w3.org/2000/svg" xmlns:xlink="http://www.w3.org/1999/xlink" width="3249" height="1266" viewBox="0 0 3249 1266"><path d="M2533.96 289.071C2533.05 289.271 2531.96 289.513 2530.67 289.797C2526.14 294.803 2519.52 302.034 2514.91 306.627L2410.51 410.972L1963.01 857.589L1830.25 990.501C1808.92 1011.81 1787.66 1033.48 1766.01 1054.46C1763.14 1057.23 1760.97 1059.3 1757.03 1059.57C1737.89 1060.85 1717.47 1060.1 1698.19 1060.06L1595.08 1060.08L1250.67 1060.09C1235.22 1060.09 1107.02 1061.21 1102.56 1059.25C1103.02 1054.5 1103.33 1054.9 1107.33 1050.84C1128.01 1029.85 1150.04 1008.92 1170.7 988.089L1348.63 809.75L1439.19 719.037C1485.09 673.385 1530.77 627.711 1576.54 581.838L1810.17 347.453C1812.3 345.332 1816.98 342.587 1818.25 341.092C1824.25 334.066 1830.37 327.964 1836.89 321.422L1906 252.454C1909.49 249.015 1919.07 237.62 1922.54 235.467C1927.08 232.652 2059.49 234.175 2073.71 234.175L2637.14 234.183L2810.86 234.161L2863.55 234.148C2868.45 234.141 2895.83 233.4 2898.53 235.687C2908.06 243.781 2918.26 254.647 2927.16 263.633L2984.93 321.531C2987.75 324.352 3002.22 339.261 3004.87 341.038C3003.45 409.064 3004.83 482.718 3004.83 551.054L3004.75 1057.51L2717.17 1057.49C2691.26 1057.46 2509.24 1055.22 2500.51 1058.96C2499.43 1059.42 2498.3 1059.75 2497.14 1059.87C2496.33 1005.46 2496.97 949.92 2497 895.404L2497.01 582.76L2496.86 478.995C2496.86 461.191 2497.4 441.482 2496.83 423.867C2498.02 417.685 2539.03 381.561 2545.38 374.047C2553.59 362.122 2563 354.785 2573.68 345.948C2581.59 339.4 2577.38 334.255 2589.08 330.3C2587.94 330.687 2621.93 296.412 2621.34 297.151C2623.46 295.917 2628.75 290.492 2630.02 288.3C2630.6 288.356 2631.3 288.084 2631.94 287.917C2632.19 284.649 2632.57 285.682 2631.09 283.191C2616.71 281.617 2592.27 283.273 2576.98 282.801C2569.6 282.573 2542.39 282.481 2536.69 283.4L2535.99 285.975L2533.96 289.071Z"/><path d="M1589.99 468.935C1587.4 469.583 1565.78 492.094 1561.63 496.246L1473.55 584.376L1104.42 953.412L1035.82 1022.08C1025.33 1032.59 1008.65 1050.26 997.574 1059.27C985.503 1061.26 736.66 1060.9 734.149 1059.49C733.19 1058.95 733.288 1057.78 733.067 1056.79C734.245 1053.61 826.658 962.296 836.447 952.44L867.794 921.074L995.808 793.106L1367.16 421.794L1490.59 298.402C1509.99 279.002 1529.66 259.927 1548.63 240.114C1556.86 231.52 1576.31 234.076 1588.1 234.078L1639.69 234.104C1688.2 234.145 1744.5 232.82 1792.4 234.73L1792.61 236.151C1786.5 244.299 1769.57 260.414 1761.78 268.215L1702.79 327.227L1631.15 398.866C1620.63 409.376 1610.1 419.88 1599.64 430.447C1596.88 433.233 1595.08 433.366 1594.1 437.113L1591.74 437.849C1589.47 444.281 1590.64 461.331 1589.99 468.935Z"/><path d="M1228.62 234.452C1241.07 233.303 1395.5 233.452 1400.64 235.302L1400.74 237.633C1392.82 243.525 1200.78 435.671 1198.84 439.142C1195.64 444.852 1199.39 458.315 1197.83 465.376C1197.75 465.758 1197.65 466.137 1197.57 466.519C1197.17 468.259 1196.72 469.415 1195.44 470.723C1186.61 479.773 1177.09 488.365 1168.11 497.324L1043.09 621.711L824.301 840.924C814.989 850.103 806.172 859.578 797.134 869.012C794.438 871.826 789.312 875.366 787.308 877.553C772.592 893.62 756.645 908.961 741.25 924.461L648.545 1016.96C635.734 1029.75 622.907 1042.64 610.202 1055.52C603.995 1061.81 586.563 1060.3 578.013 1060.16L468.944 1060.2C450.096 1060.22 424.117 1061 405.715 1059.62L405.569 1057.59C406.744 1057.17 446.624 1014.99 452.39 1009.36L566.291 896.31C577.423 885.15 588.426 873.914 600.232 863.463C600.437 863.282 601.15 859.21 602.285 858.281C615.218 847.706 627.567 835.68 639.318 823.779L837.886 624.686L936.218 525.537C943.651 518.018 958.435 508.676 961.054 498.3C970.783 496.77 972.224 488.619 979.285 482.269C982.688 479.209 986.308 476.407 989.531 473.248L1020.87 441.919L1160.15 302.663C1181.87 281.019 1206.54 255.018 1228.62 234.452Z"/><path d="M942.65 234.065C955.606 234.272 1046.9 232.875 1051.02 235.91C1049.94 240.118 899.483 389.526 881.615 407.919C876.991 412.678 859.763 429.047 853.697 434.808C844.588 443.46 850.067 465.193 847.451 467.822C835.722 479.606 820.81 494.478 808.979 506.299L702.961 612.092L258.245 1057.13C257.859 1057.51 255.616 1059.56 255.325 1059.59C246.748 1060.65 233.036 1060.25 224.75 1060.21L160.68 1060.26C148.11 1060.27 132.125 1060.72 119.88 1059.52L119.749 1057.27C122.227 1052.96 142.888 1034.37 147.488 1029.8C185.244 992.355 222.55 954.492 260.245 917.027L372.07 805.312L734.384 443.053L905.525 271.777C910.314 266.953 940.913 237.698 942.65 234.065Z"/><path d="M573.841 234.612C581.463 240.91 597.588 289.749 601.729 292.778C608.723 290.733 622.355 244.737 630.714 234.866C635.31 233.631 646.787 233.944 651.869 234.204C652.762 260.581 651.124 288.884 652.323 314.509C646.726 314.826 642.142 315.054 636.49 314.912C635.448 302.949 637.121 268.028 635.554 260.125C633.157 260.721 632.907 261.314 631.647 263.393C627.359 270.468 612.859 313.013 607.615 314.457C603.975 315.459 599.742 315.01 595.992 314.927C591.658 301.084 582.559 285.906 577.666 272.053C576.817 269.649 576.756 269.408 574.513 267.789C575.087 262.854 574.15 263.222 570.997 257.974L569.486 257.871C568.538 263.139 568.424 307.879 568.769 315.452L556.163 314.76C555.468 289.314 555.979 260.741 555.938 235.078C561.446 235.159 568.546 235.521 573.841 234.612Z"/><path d="M3004.87 341.038L3007.19 341.77C3008.6 347.535 3008.04 384.992 3008.03 393.143L3008 514.46L3007.97 1059.66C3000.28 1061.21 2976.41 1060.63 2967.06 1060.62L2889.48 1060.59L2580.29 1060.51C2571.42 1060.52 2500 1061.16 2497.14 1059.87C2498.3 1059.75 2499.43 1059.42 2500.51 1058.96C2509.24 1055.22 2691.26 1057.46 2717.17 1057.49L3004.75 1057.51L3004.83 551.054C3004.83 482.718 3003.45 409.064 3004.87 341.038Z"/><path d="M2497.14 1059.87L2494.94 1059.54C2494.77 1059.23 2494.58 1058.93 2494.42 1058.62C2492.19 1054.29 2493.65 602.509 2493.63 547.601C2493.63 530.151 2491.52 433.737 2494.49 424.571L2496.83 423.867C2497.4 441.482 2496.86 461.191 2496.86 478.995L2497.01 582.76L2497 895.404C2496.97 949.92 2496.33 1005.46 2497.14 1059.87Z"/><path d="M469.041 244.042C469.1 240.954 468.757 237.332 470.236 234.83C478.1 233.871 535.386 233.709 542.094 234.567C544.944 237.226 544.229 235.957 545.293 239.36C544.393 242.451 543.832 243.864 542.498 246.799C533.189 247.36 523.695 246.62 514.463 246.959L514.388 314.893C510.359 314.991 503.769 314.954 499.962 315.406C496.872 308.428 498.342 257.976 498.507 246.697C491.496 246.608 484.584 246.808 477.562 246.485C472.764 246.265 473.581 245.365 469.566 244.191L469.041 244.042Z"/><path d="M2535.99 285.975L2536.69 283.4C2542.39 282.481 2569.6 282.573 2576.98 282.801C2592.27 283.273 2616.71 281.617 2631.09 283.191C2632.57 285.682 2632.19 284.649 2631.94 287.917C2631.3 288.084 2630.6 288.356 2630.02 288.3L2628.34 286.408C2624.24 285.419 2617.75 285.916 2613.33 286.057L2535.99 285.975Z"/><path d="M552.844 233.475C557.503 233.507 570.294 233.142 573.841 234.612C568.546 235.521 561.446 235.159 555.938 235.078C555.979 260.741 555.468 289.314 556.163 314.76L553.771 314.374C551.595 309.792 552.661 243.61 552.844 233.475Z"/><path d="M469.041 244.042L469.566 244.191C473.581 245.365 472.764 246.265 477.562 246.485C484.584 246.808 491.496 246.608 498.507 246.697C498.342 257.976 496.872 308.428 499.962 315.406L495.553 314.879C494.014 310.562 494.836 256.336 494.82 248.38C489.034 248.552 473.115 249.901 468.902 246.968L469.041 244.042Z"/><path d="M2535.99 285.975L2613.33 286.057L2612.12 288.97C2586.54 289.075 2559.42 289.65 2533.96 289.071L2535.99 285.975Z"/><path d="M568.769 315.452C568.424 307.879 568.538 263.139 569.486 257.871L570.997 257.974C574.15 263.222 575.087 262.854 574.513 267.789C568.023 274.183 575.341 308.18 571.048 315.007L568.769 315.452Z"/><path d="M1594.1 437.113C1594.1 442.934 1595.07 465.66 1592.58 468.893L1589.99 468.935C1590.64 461.331 1589.47 444.281 1591.74 437.849L1594.1 437.113Z"/><path d="M2613.33 286.057C2617.75 285.916 2624.24 285.419 2628.34 286.408L2630.02 288.3C2628.75 290.492 2623.46 295.917 2621.34 297.151C2621.45 294.159 2622.34 293.43 2621.66 290.197C2618.79 288.301 2616.14 289.008 2612.12 288.97L2613.33 286.057Z"/></svg>