<svg width="47" height="47" viewBox="0 0 47 47" fill="none" xmlns="http://www.w3.org/2000/svg">
<path d="M21.6494 35.0147C21.5906 35.0147 21.5906 35.0147 21.5319 35.0147C20.9444 34.956 20.4744 34.486 20.4156 33.8985L18.9469 19.2697L17.6544 23.2647C17.4781 23.7935 17.0081 24.0872 16.4794 24.0872H7.84312C7.13812 24.0872 6.60938 23.5585 6.60938 22.9122C6.60938 22.266 7.13812 21.6785 7.84312 21.6785H15.6569L18.4769 12.866C18.6531 12.3372 19.1819 11.9847 19.7694 12.0435C20.3569 12.1022 20.7681 12.5722 20.8269 13.1597L22.2369 27.436L25.2331 17.2135C25.4094 16.6847 25.8206 16.3322 26.4081 16.3322C26.9369 16.3322 27.4069 16.7435 27.5831 17.2722L29.2281 24.381L30.4619 22.5597C30.6969 22.2072 31.0494 22.031 31.4606 22.031H39.2156C39.8619 22.031 40.4494 22.5597 40.4494 23.2647C40.4494 23.911 39.9206 24.4985 39.2156 24.4985H32.1069L29.6981 28.0822C29.4044 28.4935 28.9344 28.6697 28.4644 28.611C27.9944 28.5522 27.5831 28.141 27.5244 27.671L26.2906 22.3835L22.8244 34.251C22.6481 34.6622 22.1781 35.0147 21.6494 35.0147Z" fill="white"/>
</svg>
