<svg width="4087" height="507" viewBox="0 0 4087 507" fill="none" xmlns="http://www.w3.org/2000/svg">
<path d="M0.636719 496.582V10.5469C0.636719 8.26823 1.77604 7.12891 4.05469 7.12891H181.789C217.564 7.35677 249.351 13.623 277.15 25.9277C305.178 38.2324 327.964 55.5501 345.51 77.8809C363.283 100.212 376.727 126.644 385.842 157.178C394.956 187.484 399.514 221.208 399.514 258.35C399.514 334.229 381.057 393.473 344.143 436.084C307.456 478.695 253.339 500 181.789 500H4.05469C1.77604 500 0.636719 498.861 0.636719 496.582ZM49.5137 454.541C49.5137 456.82 50.653 457.959 52.9316 457.959H181.789C234.426 457.959 275.1 440.983 303.811 407.031C332.521 373.079 346.877 323.519 346.877 258.35C346.877 193.636 332.294 142.594 303.127 105.225C273.96 67.8548 233.514 49.1699 181.789 49.1699H52.9316C50.653 49.1699 49.5137 50.3092 49.5137 52.5879V454.541ZM442.922 496.582L603.908 10.5469C604.592 8.26823 605.959 7.12891 608.01 7.12891H678.078C680.129 7.12891 681.496 8.26823 682.18 10.5469L843.166 496.582C843.85 498.861 842.938 500 840.432 500H795.656C793.15 500 791.555 498.861 790.871 496.582L755.666 389.258C754.982 386.979 753.387 385.84 750.881 385.84H535.207C532.701 385.84 531.105 386.979 530.422 389.258L495.559 496.582C494.875 498.861 493.166 500 490.432 500H445.656C443.15 500 442.238 498.861 442.922 496.582ZM546.486 340.381C545.803 342.66 546.714 343.799 549.221 343.799H737.551C739.602 343.799 740.285 342.66 739.602 340.381L646.633 51.9043C645.949 50.3092 644.696 49.5117 642.873 49.5117C641.278 49.5117 640.139 50.3092 639.455 51.9043L546.486 340.381ZM901.613 364.99C901.613 362.484 902.753 361.23 905.031 361.23H947.072C949.351 361.23 950.49 362.484 950.49 364.99C950.49 377.295 953.566 389.372 959.719 401.221C966.099 413.07 974.872 423.779 986.037 433.35C997.202 442.92 1011.33 450.667 1028.42 456.592C1045.74 462.288 1064.54 465.137 1084.82 465.137C1108.29 465.137 1130.05 461.377 1150.1 453.857C1170.15 446.338 1186.67 434.831 1199.66 419.336C1212.65 403.613 1219.14 385.498 1219.14 364.99C1219.14 352.23 1217.43 340.837 1214.02 330.811C1210.6 320.785 1205.47 312.467 1198.63 305.859C1192.03 299.023 1184.85 293.327 1177.1 288.77C1169.35 284.212 1159.9 280.566 1148.73 277.832C1137.57 274.87 1127.2 272.705 1117.63 271.338C1108.29 269.971 1097.35 268.717 1084.82 267.578C1066.13 265.983 1049.38 263.932 1034.57 261.426C1019.76 258.691 1004.15 254.248 987.746 248.096C971.34 241.715 957.554 233.968 946.389 224.854C935.451 215.739 926.337 203.662 919.045 188.623C911.981 173.356 908.449 155.811 908.449 135.986C908.449 115.023 913.234 95.8822 922.805 78.5645C932.603 61.0189 945.477 46.6634 961.428 35.498C977.606 24.3327 995.721 15.6738 1015.77 9.52148C1036.05 3.36914 1056.79 0.292969 1077.98 0.292969C1099.86 0.292969 1120.82 3.25521 1140.87 9.17969C1160.92 14.8763 1179.15 23.3073 1195.56 34.4727C1211.96 45.638 1225.07 60.5632 1234.87 79.248C1244.89 97.7051 1249.9 118.669 1249.9 142.139C1249.9 144.645 1248.76 145.898 1246.49 145.898H1204.45C1202.17 145.898 1201.03 144.645 1201.03 142.139C1201.03 110.465 1189.41 85.9701 1166.16 68.6523C1143.15 51.1068 1113.76 42.334 1077.98 42.334C1045.17 42.334 1016.8 51.1068 992.873 68.6523C969.175 85.9701 957.326 108.415 957.326 135.986C957.326 147.38 959.035 157.52 962.453 166.406C965.871 175.293 971.91 183.952 980.568 192.383C989.455 200.814 1002.56 207.878 1019.88 213.574C1037.42 219.271 1059.07 223.258 1084.82 225.537C1099.4 226.904 1111.7 228.271 1121.73 229.639C1131.98 231.006 1144.06 233.285 1157.96 236.475C1171.86 239.437 1183.48 242.969 1192.82 247.07C1202.39 250.944 1212.31 256.413 1222.56 263.477C1232.81 270.54 1241.02 278.63 1247.17 287.744C1253.32 296.631 1258.34 307.682 1262.21 320.898C1266.31 334.115 1268.36 348.812 1268.36 364.99C1268.36 406.917 1251.04 441.097 1216.41 467.529C1182 493.734 1138.14 506.836 1084.82 506.836C1029.9 506.836 985.581 493.164 951.857 465.82C918.361 438.477 901.613 404.867 901.613 364.99ZM1349.37 496.582V10.5469C1349.37 8.26823 1350.51 7.12891 1352.79 7.12891H1394.83C1397.1 7.12891 1398.24 8.26823 1398.24 10.5469V222.119C1398.24 224.398 1399.38 225.537 1401.66 225.537H1652.88C1655.39 225.537 1656.64 224.398 1656.64 222.119V10.5469C1656.64 8.26823 1657.78 7.12891 1660.06 7.12891H1702.1C1704.38 7.12891 1705.52 8.26823 1705.52 10.5469V496.582C1705.52 498.861 1704.38 500 1702.1 500H1660.06C1657.78 500 1656.64 498.861 1656.64 496.582V270.996C1656.64 268.717 1655.39 267.578 1652.88 267.578H1401.66C1399.38 267.578 1398.24 268.717 1398.24 270.996V496.582C1398.24 498.861 1397.1 500 1394.83 500H1352.79C1350.51 500 1349.37 498.861 1349.37 496.582ZM1817.63 496.582V10.5469C1817.63 8.26823 1818.77 7.12891 1821.05 7.12891H2055.52C2091.29 7.12891 2120.92 20.3451 2144.39 46.7773C2167.86 72.9818 2179.59 104.769 2179.59 142.139C2179.59 155.583 2177.31 168.343 2172.76 180.42C2168.43 192.269 2162.73 202.181 2155.67 210.156C2148.83 217.904 2142.11 224.284 2135.5 229.297C2128.89 234.31 2122.51 238.184 2116.36 240.918C2114.54 241.602 2113.51 242.855 2113.28 244.678C2113.28 246.273 2114.31 247.412 2116.36 248.096C2133.22 254.02 2149.86 268.262 2166.26 290.82C2182.9 313.151 2191.21 337.874 2191.21 364.99C2191.21 405.094 2178 437.679 2151.56 462.744C2125.36 487.581 2091.98 500 2051.42 500H1821.05C1818.77 500 1817.63 498.861 1817.63 496.582ZM1866.51 454.541C1866.51 456.82 1867.65 457.959 1869.92 457.959H2041.51C2070.67 457.959 2094.71 448.844 2113.62 430.615C2132.77 412.158 2142.34 390.283 2142.34 364.99C2142.34 339.925 2132.77 317.48 2113.62 297.656C2094.48 277.604 2072.04 267.578 2046.29 267.578H1869.92C1867.65 267.578 1866.51 268.717 1866.51 270.996V454.541ZM1866.51 222.119C1866.51 224.398 1867.65 225.537 1869.92 225.537H2041.51C2064.29 224.398 2084.8 215.967 2103.03 200.244C2121.26 184.521 2130.37 165.153 2130.37 142.139C2130.37 115.934 2122.51 93.9453 2106.79 76.1719C2091.29 58.1706 2069.53 49.1699 2041.51 49.1699H1869.92C1867.65 49.1699 1866.51 50.3092 1866.51 52.5879V222.119ZM2288.28 385.156C2272.1 347.559 2264.02 303.695 2264.02 253.564C2264.02 203.434 2272.1 159.57 2288.28 121.973C2304.46 84.375 2329.3 54.7526 2362.79 33.1055C2396.29 11.2305 2436.85 0.292969 2484.47 0.292969C2532.1 0.292969 2572.66 11.2305 2606.15 33.1055C2639.65 54.7526 2664.49 84.375 2680.67 121.973C2696.84 159.57 2704.93 203.434 2704.93 253.564C2704.93 303.695 2696.84 347.559 2680.67 385.156C2664.49 422.754 2639.65 452.49 2606.15 474.365C2572.66 496.012 2532.1 506.836 2484.47 506.836C2436.85 506.836 2396.29 496.012 2362.79 474.365C2329.3 452.49 2304.46 422.754 2288.28 385.156ZM2359.72 97.7051C2331.01 134.391 2316.65 186.344 2316.65 253.564C2316.65 320.785 2331.01 372.852 2359.72 409.766C2388.43 446.68 2430.01 465.137 2484.47 465.137C2538.93 465.137 2580.52 446.68 2609.23 409.766C2638.17 372.852 2652.64 320.785 2652.64 253.564C2652.64 186.344 2638.17 134.391 2609.23 97.7051C2580.52 60.791 2538.93 42.334 2484.47 42.334C2430.01 42.334 2388.43 60.791 2359.72 97.7051ZM2758.25 496.582L2919.24 10.5469C2919.92 8.26823 2921.29 7.12891 2923.34 7.12891H2993.41C2995.46 7.12891 2996.83 8.26823 2997.51 10.5469L3158.5 496.582C3159.18 498.861 3158.27 500 3155.76 500H3110.99C3108.48 500 3106.89 498.861 3106.2 496.582L3071 389.258C3070.31 386.979 3068.72 385.84 3066.21 385.84H2850.54C2848.03 385.84 2846.44 386.979 2845.75 389.258L2810.89 496.582C2810.21 498.861 2808.5 500 2805.76 500H2760.99C2758.48 500 2757.57 498.861 2758.25 496.582ZM2861.82 340.381C2861.13 342.66 2862.05 343.799 2864.55 343.799H3052.88C3054.93 343.799 3055.62 342.66 3054.93 340.381L2961.96 51.9043C2961.28 50.3092 2960.03 49.5117 2958.21 49.5117C2956.61 49.5117 2955.47 50.3092 2954.79 51.9043L2861.82 340.381ZM3244.97 496.582V10.5469C3244.97 8.26823 3246.11 7.12891 3248.39 7.12891H3454.15C3494.48 7.12891 3527.52 20.8008 3553.27 48.1445C3579.02 75.4883 3591.9 109.896 3591.9 151.367C3591.9 183.268 3583.92 211.523 3567.97 236.133C3552.25 260.742 3531.74 277.262 3506.45 285.693C3503.71 286.605 3503.03 288.542 3504.4 291.504C3515.56 317.708 3531.97 354.281 3553.62 401.221C3575.26 448.161 3589.73 479.948 3597.02 496.582C3597.71 498.861 3596.68 500 3593.95 500H3552.93C3550.2 500 3548.49 498.861 3547.8 496.582L3458.94 299.023C3457.8 296.745 3456.2 295.605 3454.15 295.605H3297.27C3294.99 295.605 3293.85 296.745 3293.85 299.023V496.582C3293.85 498.861 3292.71 500 3290.43 500H3248.39C3246.11 500 3244.97 498.861 3244.97 496.582ZM3293.85 250.146C3293.85 252.425 3294.99 253.564 3297.27 253.564H3446.97C3475 253.564 3498.02 243.197 3516.02 222.461C3534.02 201.725 3543.02 178.027 3543.02 151.367C3543.02 124.707 3534.02 101.009 3516.02 80.2734C3498.02 59.5378 3475 49.1699 3446.97 49.1699H3297.27C3294.99 49.1699 3293.85 50.3092 3293.85 52.5879V250.146ZM3687.26 496.582V10.5469C3687.26 8.26823 3688.4 7.12891 3690.68 7.12891H3868.41C3904.18 7.35677 3935.97 13.623 3963.77 25.9277C3991.8 38.2324 4014.59 55.5501 4032.13 77.8809C4049.9 100.212 4063.35 126.644 4072.46 157.178C4081.58 187.484 4086.13 221.208 4086.13 258.35C4086.13 334.229 4067.68 393.473 4030.76 436.084C3994.08 478.695 3939.96 500 3868.41 500H3690.68C3688.4 500 3687.26 498.861 3687.26 496.582ZM3736.13 454.541C3736.13 456.82 3737.27 457.959 3739.55 457.959H3868.41C3921.05 457.959 3961.72 440.983 3990.43 407.031C4019.14 373.079 4033.5 323.519 4033.5 258.35C4033.5 193.636 4018.91 142.594 3989.75 105.225C3960.58 67.8548 3920.14 49.1699 3868.41 49.1699H3739.55C3737.27 49.1699 3736.13 50.3092 3736.13 52.5879V454.541Z" fill="white"/>
</svg>
