<svg width="21" height="33" viewBox="0 0 21 33" fill="none" xmlns="http://www.w3.org/2000/svg">
<path fill-rule="evenodd" clip-rule="evenodd" d="M0 25.9278V3.53687C0 1.58356 1.56625 0 3.5 0H17.5C19.4338 0 21 1.58356 21 3.53687V25.9278H0ZM6.35264 17.2837L9.26931 19.2473C9.76513 19.5817 10.4316 19.4844 10.8122 19.0234L16.062 12.6566C16.4748 12.1587 16.4077 11.4163 15.9133 10.9979C15.4175 10.581 14.6824 10.6503 14.2698 11.1511L9.69045 16.6988L7.64585 15.3229C7.11064 14.9635 6.38585 15.1079 6.02857 15.65C5.67128 16.1906 5.81743 16.9242 6.35264 17.2837ZM21 28.2832V29.4631C21 31.4164 19.4338 33 17.5 33H3.5C1.56625 33 0 31.4164 0 29.4631V28.2832H21Z" fill="white"/>
</svg>
