<svg width="24" height="24" viewBox="0 0 24 24" fill="none" xmlns="http://www.w3.org/2000/svg">
<path fill-rule="evenodd" clip-rule="evenodd" d="M6.50971 2C4.01907 2 2 4.01907 2 6.50971V17.4903C2 19.9809 4.01907 22 6.50971 22H11.85C12.3192 22 12.6995 21.6197 12.6995 21.1505C12.6995 20.6813 12.3192 20.301 11.85 20.301H6.50971C4.95742 20.301 3.69904 19.0426 3.69904 17.4903V6.50971C3.69904 4.95742 4.95742 3.69904 6.50971 3.69904H17.1903C18.7426 3.69904 20.0009 4.95742 20.0009 6.50971V12C20.0009 12.4692 20.3813 12.8495 20.8505 12.8495C21.3196 12.8495 21.7 12.4692 21.7 12V6.50971C21.7 4.01907 19.6809 2 17.1903 2H6.50971ZM7.00257 11.1503C6.53339 11.1503 6.15305 11.5306 6.15305 11.9998C6.15305 12.469 6.53339 12.8493 7.00257 12.8493H10.0017C10.4709 12.8493 10.8512 12.469 10.8512 11.9998C10.8512 11.5306 10.4709 11.1503 10.0017 11.1503H7.00257ZM6.15305 8.00201C6.15305 7.53283 6.53339 7.15248 7.00257 7.15248H12.9992C13.4684 7.15248 13.8487 7.53283 13.8487 8.00201C13.8487 8.47119 13.4684 8.85153 12.9992 8.85153H7.00257C6.53339 8.85153 6.15305 8.47119 6.15305 8.00201ZM19.4326 13.2912C18.9055 12.7553 18.0509 12.7553 17.5238 13.2912L13.7674 17.1101C13.478 17.4044 13.3356 17.8162 13.3801 18.2297L13.595 20.2252C13.6509 20.7447 14.0543 21.1549 14.5653 21.2117L16.5281 21.4301C16.9349 21.4754 17.3399 21.3306 17.6293 21.0364L21.3857 17.2174C21.9127 16.6815 21.9127 15.8127 21.3857 15.2768L19.4326 13.2912ZM15.0726 18.2059L18.4782 14.7435L19.9572 16.2471L16.5516 19.7095L15.2185 19.5612L15.0726 18.2059Z" fill="#1C1C1C"/>
</svg>
