<svg width="1175" height="493" viewBox="0 0 1175 493" fill="none" xmlns="http://www.w3.org/2000/svg">
<path d="M0.00390625 489.582V3.54688C0.00390625 1.26823 1.14323 0.128906 3.42188 0.128906H307.279C309.558 0.128906 310.697 1.26823 310.697 3.54688V38.752C310.697 41.0306 309.558 42.1699 307.279 42.1699H52.2988C50.0202 42.1699 48.8809 43.3092 48.8809 45.5879V215.119C48.8809 217.398 50.0202 218.537 52.2988 218.537H277.201C279.48 218.537 280.619 219.676 280.619 221.955V257.16C280.619 259.439 279.48 260.578 277.201 260.578H52.2988C50.0202 260.578 48.8809 261.717 48.8809 263.996V489.582C48.8809 491.861 47.7415 493 45.4629 493H3.42188C1.14323 493 0.00390625 491.861 0.00390625 489.582ZM352.738 493C351.599 493 350.801 492.658 350.346 491.975C349.89 491.291 350.004 490.493 350.688 489.582L512.357 249.299C513.952 247.02 513.952 244.742 512.357 242.463L350.688 3.54688C350.004 2.63542 349.89 1.83789 350.346 1.1543C350.801 0.470703 351.599 0.128906 352.738 0.128906H401.615C403.21 0.128906 404.805 1.26823 406.4 3.54688L539.018 205.207C539.701 206.574 540.84 207.258 542.436 207.258C544.031 207.258 545.17 206.574 545.854 205.207L678.129 3.54688C679.724 1.26823 681.319 0.128906 682.914 0.128906H732.133C733.272 0.128906 734.07 0.470703 734.525 1.1543C734.981 1.83789 734.867 2.63542 734.184 3.54688L572.514 242.463C570.919 244.742 570.919 247.02 572.514 249.299L734.184 489.582C734.867 490.493 734.981 491.291 734.525 491.975C734.07 492.658 733.272 493 732.133 493H683.598C681.547 493 679.724 491.861 678.129 489.582L545.854 287.238C543.575 284.276 541.296 284.276 539.018 287.238L406.4 489.582C404.805 491.861 402.982 493 400.932 493H352.738ZM791.605 493C790.466 493 789.669 492.658 789.213 491.975C788.757 491.291 788.871 490.493 789.555 489.582L951.225 249.299C952.82 247.02 952.82 244.742 951.225 242.463L789.555 3.54688C788.871 2.63542 788.757 1.83789 789.213 1.1543C789.669 0.470703 790.466 0.128906 791.605 0.128906H840.482C842.077 0.128906 843.673 1.26823 845.268 3.54688L977.885 205.207C978.568 206.574 979.708 207.258 981.303 207.258C982.898 207.258 984.037 206.574 984.721 205.207L1117 3.54688C1118.59 1.26823 1120.19 0.128906 1121.78 0.128906H1171C1172.14 0.128906 1172.94 0.470703 1173.39 1.1543C1173.85 1.83789 1173.73 2.63542 1173.05 3.54688L1011.38 242.463C1009.79 244.742 1009.79 247.02 1011.38 249.299L1173.05 489.582C1173.73 490.493 1173.85 491.291 1173.39 491.975C1172.94 492.658 1172.14 493 1171 493H1122.46C1120.41 493 1118.59 491.861 1117 489.582L984.721 287.238C982.442 284.276 980.163 284.276 977.885 287.238L845.268 489.582C843.673 491.861 841.85 493 839.799 493H791.605Z" fill="white"/>
</svg>
