<svg width="28" height="28" viewBox="0 0 28 28" fill="none" xmlns="http://www.w3.org/2000/svg">
<g clip-path="url(#clip0_824_433)">
<path fill-rule="evenodd" clip-rule="evenodd" d="M20.125 11.375H7.875C7.392 11.375 7 10.9839 7 10.5C7 10.017 7.392 9.625 7.875 9.625H20.125C20.608 9.625 21 10.017 21 10.5C21 10.9839 20.608 11.375 20.125 11.375ZM18.375 16.625H9.625C9.142 16.625 8.75 16.2339 8.75 15.75C8.75 15.2661 9.142 14.875 9.625 14.875H18.375C18.858 14.875 19.25 15.2661 19.25 15.75C19.25 16.2339 18.858 16.625 18.375 16.625ZM14 0C6.2685 0 0 5.48538 0 12.25C0 16.1166 2.05188 19.5598 5.25 21.8041V28L11.3829 24.2786C12.2316 24.4186 13.1049 24.5 14 24.5C21.7315 24.5 28 19.0155 28 12.25C28 5.48538 21.7315 0 14 0Z" fill="black"/>
</g>
<defs>
<clipPath id="clip0_824_433">
<rect width="28" height="28" fill="white"/>
</clipPath>
</defs>
</svg>
