<svg width="31" height="31" viewBox="0 0 31 31" fill="none" xmlns="http://www.w3.org/2000/svg">
<path d="M15.1424 7.45089L15.5026 7.82517L15.8629 7.45089C18.641 4.56447 21.6472 4.24276 23.9327 5.28744C26.2496 6.34652 27.9193 8.84769 27.9193 11.8013C27.9193 14.7858 26.6918 17.0797 24.9745 19.0135C23.5699 20.5951 21.8648 21.9093 20.2421 23.1599C19.861 23.4536 19.4845 23.7438 19.1175 24.0331C18.4424 24.5653 17.8111 25.0563 17.194 25.4168C16.5769 25.7774 16.0215 25.9783 15.5026 25.9783C14.9837 25.9783 14.4284 25.7774 13.8112 25.4168C13.1942 25.0563 12.5629 24.5653 11.8877 24.0331C11.5207 23.7438 11.1442 23.4536 10.7632 23.1599C9.14044 21.9093 7.43533 20.5951 6.03074 19.0135C4.31345 17.0797 3.08594 14.7858 3.08594 11.8013C3.08594 8.84768 4.75558 6.34652 7.07253 5.28744C9.35795 4.24276 12.3642 4.56446 15.1424 7.45089Z" stroke="white"/>
</svg>
