<svg width="27" height="23" viewBox="0 0 27 23" fill="none" xmlns="http://www.w3.org/2000/svg">
<path d="M13.0001 3.30702L13.3604 3.6813L13.7206 3.30702C16.5986 0.316871 19.7158 -0.0184377 22.0872 1.06553C24.4901 2.16391 26.2207 4.75728 26.2207 7.81874C26.2207 10.9112 24.9487 13.2878 23.1705 15.2901C21.7164 16.9274 19.9511 18.2879 18.2726 19.5816C17.8786 19.8853 17.4894 20.1852 17.1101 20.4842C16.4119 21.0346 15.758 21.5432 15.1186 21.9168C14.479 22.2906 13.9015 22.5 13.3604 22.5C12.8193 22.5 12.2418 22.2906 11.6022 21.9168C10.9628 21.5432 10.3089 21.0346 9.61068 20.4842C9.23139 20.1852 8.84217 19.8853 8.44817 19.5816C6.76962 18.2879 5.00432 16.9274 3.55029 15.2901C1.7721 13.2878 0.5 10.9112 0.5 7.81874C0.5 4.75728 2.23066 2.16391 4.63357 1.06553C7.00496 -0.0184372 10.1221 0.31687 13.0001 3.30702Z" stroke="black"/>
</svg>
