<svg width="22" height="19" viewBox="0 0 22 19" fill="none" xmlns="http://www.w3.org/2000/svg">
<path d="M1.87695 8.43866H20.627C20.8756 8.43866 21.1141 8.53743 21.2899 8.71325C21.4657 8.88906 21.5645 9.12752 21.5645 9.37616C21.5645 9.6248 21.4657 9.86326 21.2899 10.0391C21.1141 10.2149 20.8756 10.3137 20.627 10.3137H1.87695C1.62831 10.3137 1.38986 10.2149 1.21404 10.0391C1.03823 9.86326 0.939453 9.6248 0.939453 9.37616C0.939453 9.12752 1.03823 8.88906 1.21404 8.71325C1.38986 8.53743 1.62831 8.43866 1.87695 8.43866Z" fill="black"/>
<path d="M2.2648 9.37618L10.0404 17.1499C10.2165 17.326 10.3154 17.5647 10.3154 17.8137C10.3154 18.0626 10.2165 18.3014 10.0404 18.4774C9.86439 18.6535 9.62563 18.7524 9.37668 18.7524C9.12772 18.7524 8.88896 18.6535 8.71292 18.4774L0.275426 10.0399C0.18812 9.95285 0.118852 9.84939 0.0715899 9.7355C0.0243279 9.6216 0 9.4995 0 9.37618C0 9.25287 0.0243279 9.13077 0.0715899 9.01687C0.118852 8.90297 0.18812 8.79952 0.275426 8.71243L8.71292 0.274934C8.88896 0.0988966 9.12772 0 9.37668 0C9.62563 0 9.86439 0.0988966 10.0404 0.274934C10.2165 0.450971 10.3154 0.68973 10.3154 0.938684C10.3154 1.18764 10.2165 1.4264 10.0404 1.60243L2.2648 9.37618Z" fill="black"/>
</svg>
