<svg width="20" height="20" viewBox="0 0 20 20" fill="none" xmlns="http://www.w3.org/2000/svg">
<path d="M3.33301 7.22287H6.11079V16.6673H3.33301V7.22287ZM4.71356 6.11176H4.69801C3.86912 6.11176 3.33301 5.49398 3.33301 4.72232C3.33301 3.93398 3.88579 3.33398 4.72967 3.33398C5.57467 3.33398 6.09523 3.93398 6.11079 4.72232C6.11079 5.49343 5.57467 6.11176 4.71356 6.11176ZM16.6663 16.6673H13.8886V11.6123C13.8886 10.3912 13.208 9.55787 12.1152 9.55787C11.2813 9.55787 10.8302 10.1201 10.6113 10.6634C10.5313 10.8579 10.5552 11.3957 10.5552 11.6673V16.6673H7.77745V7.22287H10.5552V8.67621C10.9558 8.05621 11.583 7.22287 13.1875 7.22287C15.1752 7.22287 16.6658 8.47287 16.6658 11.264L16.6663 16.6673Z" fill="white"/>
</svg>
