<svg width="110" height="135" viewBox="0 0 110 135" fill="none" xmlns="http://www.w3.org/2000/svg">
<path d="M17.4961 16.2422C12.3555 16.2422 8.13281 20.4649 8.13281 25.6055V94.3755C8.13281 99.5161 12.3555 103.743 17.4961 103.743L45.6211 103.751V103.743C47.3477 103.743 48.7461 102.344 48.7461 100.618C48.7461 98.895 47.3477 97.4927 45.6211 97.4927L17.4961 97.4849C15.7109 97.4849 14.3594 96.1568 14.3594 94.3716V25.6016C14.3594 23.8164 15.711 22.4883 17.4961 22.4883H45.6211V22.4922C47.3477 22.4922 48.7461 21.0938 48.7461 19.3672C48.7461 17.6445 47.3477 16.2422 45.6211 16.2422L17.4961 16.2422ZM67.2231 25.6406V25.6445C66.4926 25.707 65.8129 26.0234 65.2934 26.539C64.0825 27.7578 64.0825 29.7265 65.2934 30.9452L91.2034 56.8752H33.1094C31.3946 56.883 30.0039 58.2697 29.9961 59.9885C29.9922 60.8166 30.3203 61.6135 30.9024 62.1994C31.4883 62.7893 32.2813 63.1213 33.1094 63.1252H91.1954L65.2934 89.0352C64.7035 89.6211 64.3754 90.418 64.3754 91.2461C64.3754 92.0781 64.7035 92.875 65.2934 93.4609C66.5122 94.6718 68.4809 94.6718 69.6996 93.4609L100.798 62.3629C101.485 61.7652 101.88 60.8981 101.88 59.9879C101.872 59.9254 101.864 59.8668 101.856 59.8043C101.848 59.7067 101.837 59.609 101.821 59.5113C101.805 59.4137 101.786 59.316 101.758 59.2184C101.755 59.191 101.747 59.1598 101.735 59.1324C101.716 59.066 101.692 58.9996 101.665 58.9332V58.9176C101.622 58.8082 101.571 58.6949 101.512 58.5895C101.493 58.5426 101.466 58.4996 101.442 58.4567C101.434 58.441 101.426 58.4254 101.419 58.4137C101.419 58.4098 101.415 58.4098 101.415 58.4059C101.411 58.402 101.403 58.3942 101.399 58.3903C101.344 58.2926 101.282 58.2028 101.219 58.1129C101.212 58.1051 101.204 58.0973 101.196 58.0895C101.149 58.027 101.098 57.9684 101.048 57.9137C100.993 57.8473 100.93 57.7887 100.872 57.7301L69.6807 26.5391C69.0284 25.8907 68.1221 25.5626 67.2041 25.6446L67.2231 25.6406Z" fill="black"/>
</svg>
