<svg width="31" height="30" viewBox="0 0 31 30" fill="none" xmlns="http://www.w3.org/2000/svg">
<path d="M0.262059 17.7018L0.301976 17.9612L0.367553 18.2164L0.629856 19.2314C0.716815 19.5678 0.859372 19.8886 0.973417 20.2207L1.15589 20.714C1.22147 20.8751 1.30557 21.0319 1.37828 21.1887C1.53224 21.5023 1.67764 21.8202 1.83873 22.1295L2.38187 23.0234C2.55294 23.3299 2.77532 23.5993 2.9806 23.8816C3.19586 24.1553 3.38547 24.4504 3.63064 24.7027L4.33487 25.4768C4.58006 25.7248 4.8452 25.9515 5.10183 26.1881C5.23299 26.305 5.35701 26.4248 5.49243 26.5388L5.90869 26.8524C6.18952 27.0563 6.4561 27.2872 6.75546 27.4697C7.92015 28.2466 9.19745 28.8311 10.5217 29.2901C13.196 30.1041 16.0944 30.2538 18.8285 29.5524C19.5213 29.417 20.1757 29.1433 20.8471 28.9209C21.1721 28.7826 21.49 28.6287 21.8108 28.4833C21.9719 28.4063 22.1358 28.3407 22.2883 28.2566L22.7488 27.99C23.9933 27.3114 25.1138 26.4176 26.1202 25.4169C27.1495 24.4276 27.982 23.2458 28.7033 22.0084L29.2066 21.0518C29.3605 20.7268 29.4874 20.3875 29.6257 20.0554L29.8295 19.5521L29.9863 19.0332C30.089 18.6868 30.2059 18.3404 30.2886 17.9854C30.4126 17.3211 30.5993 16.5798 30.6093 15.8243C30.6236 15.4479 30.6535 15.0758 30.6236 14.7152C30.5979 14.3545 30.5509 14.0038 30.481 13.6831C30.193 12.3844 29.5401 11.5733 28.6706 11.8299C27.9478 12.038 27.8167 12.8848 27.7539 13.914C27.7283 14.4329 27.7097 15.0017 27.6556 15.5705C27.6271 15.8556 27.6442 16.1436 27.5928 16.4173C27.5529 16.691 27.513 16.9576 27.4731 17.2099C27.4446 17.4979 27.3533 17.7759 27.2835 18.0567C27.2037 18.3347 27.1595 18.6227 27.0497 18.8921L26.7503 19.7061C26.6634 19.9841 26.5051 20.2321 26.3925 20.4945C26.1659 21.0305 25.8308 21.5052 25.5429 22.0084C25.379 22.245 25.1993 22.4759 25.0283 22.7098C24.9413 22.8267 24.86 22.9464 24.7688 23.0605L24.4766 23.3812C22.9583 25.1432 20.9326 26.439 18.7243 27.1733C16.5019 27.8405 14.0786 27.9831 11.809 27.3929C9.52811 26.8597 7.42969 25.6152 5.77321 23.9516C4.91216 23.072 4.20081 22.0613 3.60209 20.9921C3.02617 19.9044 2.627 18.7369 2.35329 17.5437C2.27631 16.9335 2.1309 16.3362 2.1309 15.719C2.12377 15.4125 2.08385 15.106 2.09811 14.7995L2.14516 13.88C2.2763 12.6654 2.49584 11.4423 2.97055 10.3075C3.42246 9.17278 4.00264 8.07083 4.77388 7.11428C5.52515 6.14776 6.39474 5.25679 7.40118 4.55256L7.77039 4.27457L8.16384 4.03793C8.43042 3.88397 8.68275 3.70577 8.95646 3.57036L9.7847 3.16834C10.0584 3.02579 10.3578 2.9488 10.6429 2.83191L11.0734 2.67082C11.216 2.61664 11.3685 2.59099 11.5153 2.55107L12.4063 2.32155C13.0165 2.24172 13.6138 2.09916 14.2353 2.09916C15.045 2.02218 16.0415 2.16189 16.8555 2.20893C17.6695 2.24885 18.3366 2.18327 18.5704 1.54889C18.8227 0.870317 18.2311 0.421291 17.3145 0.191741C16.4021 -0.0349215 15.2118 -0.0277943 14.3294 0.046333C11.5453 0.11191 8.79683 1.04993 6.48747 2.61521C5.33848 3.40783 4.31635 4.37434 3.40399 5.43213C2.53583 6.52696 1.7874 7.7173 1.22572 8.99745C0.138003 11.5663 -0.271135 14.4431 0.182198 17.1974L0.262029 17.7163L0.262059 17.7018Z" fill="white"/>
<path d="M28.0749 3.62281C27.7612 1.80236 25.0498 1.87079 24.9258 3.73971C24.6664 6.28292 28.7975 5.95502 28.0749 3.62281Z" fill="white"/>
</svg>
