<svg width="2611" height="507" viewBox="0 0 2611 507" fill="none" xmlns="http://www.w3.org/2000/svg">
<path d="M0.269531 496.582V10.5469C0.269531 8.26823 1.40885 7.12891 3.6875 7.12891H209.449C249.781 7.12891 282.822 20.8008 308.57 48.1445C334.319 75.4883 347.193 109.896 347.193 151.367C347.193 193.066 334.319 227.588 308.57 254.932C282.822 282.048 249.781 295.605 209.449 295.605H52.5645C50.2858 295.605 49.1465 296.745 49.1465 299.023V496.582C49.1465 498.861 48.0072 500 45.7285 500H3.6875C1.40885 500 0.269531 498.861 0.269531 496.582ZM49.1465 250.146C49.1465 252.425 50.2858 253.564 52.5645 253.564H202.271C230.299 253.564 253.313 243.197 271.314 222.461C289.316 201.725 298.316 178.027 298.316 151.367C298.316 124.707 289.316 101.009 271.314 80.2734C253.313 59.5378 230.299 49.1699 202.271 49.1699H52.5645C50.2858 49.1699 49.1465 50.3092 49.1465 52.5879V250.146ZM414.527 496.582V10.5469C414.527 8.26823 415.667 7.12891 417.945 7.12891H623.707C664.039 7.12891 697.079 20.8008 722.828 48.1445C748.577 75.4883 761.451 109.896 761.451 151.367C761.451 183.268 753.476 211.523 737.525 236.133C721.803 260.742 701.295 277.262 676.002 285.693C673.268 286.605 672.584 288.542 673.951 291.504C685.117 317.708 701.523 354.281 723.17 401.221C744.817 448.161 759.286 479.948 766.578 496.582C767.262 498.861 766.236 500 763.502 500H722.486C719.752 500 718.043 498.861 717.359 496.582L628.492 299.023C627.353 296.745 625.758 295.605 623.707 295.605H466.822C464.544 295.605 463.404 296.745 463.404 299.023V496.582C463.404 498.861 462.265 500 459.986 500H417.945C415.667 500 414.527 498.861 414.527 496.582ZM463.404 250.146C463.404 252.425 464.544 253.564 466.822 253.564H616.529C644.557 253.564 667.571 243.197 685.572 222.461C703.574 201.725 712.574 178.027 712.574 151.367C712.574 124.707 703.574 101.009 685.572 80.2734C667.571 59.5378 644.557 49.1699 616.529 49.1699H466.822C464.544 49.1699 463.404 50.3092 463.404 52.5879V250.146ZM851.002 385.156C834.824 347.559 826.734 303.695 826.734 253.564C826.734 203.434 834.824 159.57 851.002 121.973C867.18 84.375 892.018 54.7526 925.514 33.1055C959.01 11.2305 999.57 0.292969 1047.19 0.292969C1094.82 0.292969 1135.38 11.2305 1168.87 33.1055C1202.37 54.7526 1227.21 84.375 1243.38 121.973C1259.56 159.57 1267.65 203.434 1267.65 253.564C1267.65 303.695 1259.56 347.559 1243.38 385.156C1227.21 422.754 1202.37 452.49 1168.87 474.365C1135.38 496.012 1094.82 506.836 1047.19 506.836C999.57 506.836 959.01 496.012 925.514 474.365C892.018 452.49 867.18 422.754 851.002 385.156ZM922.438 97.7051C893.727 134.391 879.371 186.344 879.371 253.564C879.371 320.785 893.727 372.852 922.438 409.766C951.148 446.68 992.734 465.137 1047.19 465.137C1101.65 465.137 1143.24 446.68 1171.95 409.766C1200.89 372.852 1215.36 320.785 1215.36 253.564C1215.36 186.344 1200.89 134.391 1171.95 97.7051C1143.24 60.791 1101.65 42.334 1047.19 42.334C992.734 42.334 951.148 60.791 922.438 97.7051ZM1357.89 496.582V10.5469C1357.89 8.26823 1359.03 7.12891 1361.3 7.12891H1665.16C1667.44 7.12891 1668.58 8.26823 1668.58 10.5469V45.752C1668.58 48.0306 1667.44 49.1699 1665.16 49.1699H1410.18C1407.9 49.1699 1406.76 50.3092 1406.76 52.5879V222.119C1406.76 224.398 1407.9 225.537 1410.18 225.537H1635.08C1637.36 225.537 1638.5 226.676 1638.5 228.955V264.16C1638.5 266.439 1637.36 267.578 1635.08 267.578H1410.18C1407.9 267.578 1406.76 268.717 1406.76 270.996V496.582C1406.76 498.861 1405.62 500 1403.35 500H1361.3C1359.03 500 1357.89 498.861 1357.89 496.582ZM1735.91 496.582V10.5469C1735.91 8.26823 1737.05 7.12891 1739.33 7.12891H1781.37C1783.65 7.12891 1784.79 8.26823 1784.79 10.5469V496.582C1784.79 498.861 1783.65 500 1781.37 500H1739.33C1737.05 500 1735.91 498.861 1735.91 496.582ZM1893.82 496.582V10.5469C1893.82 8.26823 1894.96 7.12891 1897.24 7.12891H1939.28C1941.56 7.12891 1942.7 8.26823 1942.7 10.5469V454.541C1942.7 456.82 1943.84 457.959 1946.12 457.959H2201.1C2203.38 457.959 2204.52 459.098 2204.52 461.377V496.582C2204.52 498.861 2203.38 500 2201.1 500H1897.24C1894.96 500 1893.82 498.861 1893.82 496.582ZM2274.59 496.582V10.5469C2274.59 8.26823 2275.73 7.12891 2278 7.12891H2606.81C2609.32 7.12891 2610.57 8.26823 2610.57 10.5469V45.752C2610.57 48.0306 2609.32 49.1699 2606.81 49.1699H2326.88C2324.6 49.1699 2323.46 50.3092 2323.46 52.5879V222.119C2323.46 224.398 2324.6 225.537 2326.88 225.537H2576.73C2579.24 225.537 2580.49 226.676 2580.49 228.955V264.16C2580.49 266.439 2579.24 267.578 2576.73 267.578H2326.88C2324.6 267.578 2323.46 268.717 2323.46 270.996V454.541C2323.46 456.82 2324.6 457.959 2326.88 457.959H2606.81C2609.32 457.959 2610.57 459.098 2610.57 461.377V496.582C2610.57 498.861 2609.32 500 2606.81 500H2278C2275.73 500 2274.59 498.861 2274.59 496.582Z" fill="white"/>
</svg>
