<?xml version="1.0" standalone="no"?>
<!DOCTYPE svg PUBLIC "-//W3C//DTD SVG 20010904//EN"
 "http://www.w3.org/TR/2001/REC-SVG-20010904/DTD/svg10.dtd">
<svg version="1.0" xmlns="http://www.w3.org/2000/svg"
 width="300.000000pt" height="117.000000pt" viewBox="0 0 300.000000 117.000000"
 preserveAspectRatio="xMidYMid meet">
<metadata>
Created by potrace 1.10, written by Peter Selinger 2001-2011
</metadata>
<g transform="translate(0.000000,117.000000) scale(0.100000,-0.100000)"
fill="#000000" stroke="none">
<path d="M430 950 c0 -5 7 -10 15 -10 10 0 15 -10 15 -30 0 -16 5 -30 10 -30
6 0 10 14 10 30 0 17 5 30 10 30 6 0 10 5 10 10 0 6 -16 10 -35 10 -19 0 -35
-4 -35 -10z"/>
<path d="M510 920 c0 -22 5 -40 10 -40 6 0 10 8 10 18 1 16 1 16 11 0 14 -24
25 -22 34 5 l7 22 8 -25 c7 -21 8 -19 9 18 1 50 -11 54 -30 10 l-13 -32 -13
32 c-18 44 -33 40 -33 -8z"/>
<path d="M904 953 c-38 -4 -59 -23 -419 -383 l-380 -380 65 0 65 0 273 273
c149 149 272 278 272 285 0 6 43 53 95 104 93 90 108 110 83 106 -7 -1 -31 -3
-54 -5z"/>
<path d="M1198 951 l-67 -6 -379 -377 -379 -378 91 0 91 0 278 278 c152 152
277 282 277 287 0 6 41 51 90 100 88 88 102 107 78 103 -7 -1 -43 -4 -80 -7z
m-18 -49 c0 -4 -16 -24 -36 -43 -20 -18 -53 -59 -74 -89 -21 -30 -146 -162
-277 -292 -185 -185 -245 -239 -270 -244 -25 -5 -33 -3 -33 7 0 8 148 162 328
342 286 286 362 352 362 319z"/>
<path d="M1535 953 l-101 -4 -379 -379 -380 -380 126 0 125 0 272 273 c150
151 272 280 272 288 0 7 44 58 97 111 54 54 91 97 83 96 -8 -1 -60 -4 -115 -5z
m5 -49 c0 -3 -21 -29 -46 -58 -26 -28 -57 -67 -69 -86 -13 -19 -135 -146 -272
-282 l-249 -248 -51 0 c-29 0 -55 5 -59 11 -4 7 130 148 322 340 l329 329 48
0 c26 0 47 -3 47 -6z"/>
<path d="M1395 570 l-380 -380 305 0 305 0 360 360 360 360 45 0 44 0 -67 -68
-67 -68 0 -292 0 -292 240 0 240 0 0 328 0 328 -53 52 -53 52 -449 0 -450 0
-380 -380z m875 332 c0 -8 -638 -648 -661 -663 -21 -13 -466 -12 -475 2 -3 6
134 152 322 340 l329 329 243 0 c133 0 242 -4 242 -8z m425 -23 l35 -31 -2
-307 -3 -306 -179 -3 c-123 -2 -183 1 -192 9 -11 9 -14 60 -14 258 0 275 -4
255 77 343 24 26 43 52 43 58 0 6 37 10 100 10 97 0 100 -1 135 -31z"/>
</g>
</svg>
