<svg width="34" height="34" viewBox="0 0 34 34" fill="none" xmlns="http://www.w3.org/2000/svg">
<path d="M33.2768 27.3418H7.37964C6.9456 27.3418 6.65625 27.0525 6.65625 26.6185V0.723329C6.65625 0.289332 6.9456 0 7.37964 0C7.81367 0 8.10302 0.289332 8.10302 0.723329V25.8952H33.2768C33.7109 25.8952 34.0002 26.1845 34.0002 26.6185C34.0002 27.0525 33.7109 27.3418 33.2768 27.3418Z" fill="white"/>
<path d="M26.6206 34C26.1866 34 25.8972 33.7107 25.8972 33.2767V8.10486H0.723386C0.289354 8.10486 0 7.81553 0 7.38153C0 6.94753 0.289354 6.6582 0.723386 6.6582H26.6206C27.0546 6.6582 27.344 6.94753 27.344 7.38153V33.2767C27.344 33.7107 27.0546 34 26.6206 34Z" fill="white"/>
<path d="M7.37964 27.3418C7.16262 27.3418 7.01794 27.2695 6.87327 27.1248C6.58391 26.8355 6.58391 26.4015 6.87327 26.1122L32.7705 0.216999C33.0598 -0.0723329 33.4939 -0.0723329 33.7832 0.216999C34.0726 0.50633 34.0726 0.940328 33.7832 1.22966L7.88601 27.1248C7.74133 27.2695 7.52431 27.3418 7.37964 27.3418Z" fill="white"/>
</svg>
