<svg width="2297" height="507" viewBox="0 0 2297 507" fill="none" xmlns="http://www.w3.org/2000/svg">
<path d="M0.242188 364.99C0.242188 362.484 1.38151 361.23 3.66016 361.23H45.7012C47.9798 361.23 49.1191 362.484 49.1191 364.99C49.1191 377.295 52.1953 389.372 58.3477 401.221C64.7279 413.07 73.5007 423.779 84.666 433.35C95.8314 442.92 109.959 450.667 127.049 456.592C144.367 462.288 163.165 465.137 183.445 465.137C206.915 465.137 228.676 461.377 248.729 453.857C268.781 446.338 285.301 434.831 298.289 419.336C311.277 403.613 317.771 385.498 317.771 364.99C317.771 352.23 316.062 340.837 312.645 330.811C309.227 320.785 304.1 312.467 297.264 305.859C290.656 299.023 283.478 293.327 275.73 288.77C267.983 284.212 258.527 280.566 247.361 277.832C236.196 274.87 225.828 272.705 216.258 271.338C206.915 269.971 195.978 268.717 183.445 267.578C164.76 265.983 148.012 263.932 133.201 261.426C118.39 258.691 102.781 254.248 86.375 248.096C69.9688 241.715 56.1829 233.968 45.0176 224.854C34.0801 215.739 24.9655 203.662 17.6738 188.623C10.61 173.356 7.07812 155.811 7.07812 135.986C7.07812 115.023 11.8633 95.8822 21.4336 78.5645C31.2318 61.0189 44.1061 46.6634 60.0566 35.498C76.235 24.3327 94.3503 15.6738 114.402 9.52148C134.682 3.36914 155.418 0.292969 176.609 0.292969C198.484 0.292969 219.448 3.25521 239.5 9.17969C259.552 14.8763 277.781 23.3073 294.188 34.4727C310.594 45.638 323.696 60.5632 333.494 79.248C343.52 97.7051 348.533 118.669 348.533 142.139C348.533 144.645 347.394 145.898 345.115 145.898H303.074C300.796 145.898 299.656 144.645 299.656 142.139C299.656 110.465 288.035 85.9701 264.793 68.6523C241.779 51.1068 212.384 42.334 176.609 42.334C143.797 42.334 115.428 51.1068 91.502 68.6523C67.804 85.9701 55.9551 108.415 55.9551 135.986C55.9551 147.38 57.6641 157.52 61.082 166.406C64.5 175.293 70.5384 183.952 79.1973 192.383C88.084 200.814 101.186 207.878 118.504 213.574C136.049 219.271 157.697 223.258 183.445 225.537C198.029 226.904 210.333 228.271 220.359 229.639C230.613 231.006 242.69 233.285 256.59 236.475C270.49 239.437 282.111 242.969 291.453 247.07C301.023 250.944 310.936 256.413 321.189 263.477C331.443 270.54 339.646 278.63 345.799 287.744C351.951 296.631 356.964 307.682 360.838 320.898C364.939 334.115 366.99 348.812 366.99 364.99C366.99 406.917 349.673 441.097 315.037 467.529C280.63 493.734 236.766 506.836 183.445 506.836C128.53 506.836 84.2103 493.164 50.4863 465.82C16.9902 438.477 0.242188 404.867 0.242188 364.99ZM405.955 43.7012V10.5469C405.955 8.26823 407.094 7.12891 409.373 7.12891H746.727C749.233 7.12891 750.486 8.26823 750.486 10.5469V43.7012C750.486 45.9798 749.233 47.1191 746.727 47.1191H606.248C603.969 47.1191 602.83 48.2585 602.83 50.5371V496.582C602.83 498.861 601.577 500 599.07 500H557.029C554.751 500 553.611 498.861 553.611 496.582V50.5371C553.611 48.2585 552.472 47.1191 550.193 47.1191H409.373C407.094 47.1191 405.955 45.9798 405.955 43.7012ZM803.807 336.279V10.5469C803.807 8.26823 804.946 7.12891 807.225 7.12891H849.266C851.544 7.12891 852.684 8.26823 852.684 10.5469V336.279C852.684 370.687 864.874 400.765 889.256 426.514C913.637 452.262 942.804 465.137 976.756 465.137C1010.25 465.137 1038.85 452.262 1062.55 426.514C1086.47 400.765 1098.44 370.687 1098.44 336.279V10.5469C1098.44 8.26823 1099.69 7.12891 1102.2 7.12891H1143.89C1146.4 7.12891 1147.65 8.26823 1147.65 10.5469V336.279C1147.65 367.725 1140.13 396.549 1125.1 422.754C1110.06 448.958 1089.43 469.58 1063.23 484.619C1037.03 499.43 1008.2 506.836 976.756 506.836C928.676 506.836 887.775 490.43 854.051 457.617C820.555 424.577 803.807 384.131 803.807 336.279ZM1243.02 496.582V10.5469C1243.02 8.26823 1244.15 7.12891 1246.43 7.12891H1424.17C1459.94 7.35677 1491.73 13.623 1519.53 25.9277C1547.56 38.2324 1570.34 55.5501 1587.89 77.8809C1605.66 100.212 1619.11 126.644 1628.22 157.178C1637.34 187.484 1641.89 221.208 1641.89 258.35C1641.89 334.229 1623.44 393.473 1586.52 436.084C1549.84 478.695 1495.72 500 1424.17 500H1246.43C1244.15 500 1243.02 498.861 1243.02 496.582ZM1291.89 454.541C1291.89 456.82 1293.03 457.959 1295.31 457.959H1424.17C1476.8 457.959 1517.48 440.983 1546.19 407.031C1574.9 373.079 1589.26 323.519 1589.26 258.35C1589.26 193.636 1574.67 142.594 1545.51 105.225C1516.34 67.8548 1475.89 49.1699 1424.17 49.1699H1295.31C1293.03 49.1699 1291.89 50.3092 1291.89 52.5879V454.541ZM1719.48 496.582V10.5469C1719.48 8.26823 1720.62 7.12891 1722.9 7.12891H1764.94C1767.22 7.12891 1768.36 8.26823 1768.36 10.5469V496.582C1768.36 498.861 1767.22 500 1764.94 500H1722.9C1720.62 500 1719.48 498.861 1719.48 496.582ZM1879.78 385.156C1863.6 347.559 1855.52 303.695 1855.52 253.564C1855.52 203.434 1863.6 159.57 1879.78 121.973C1895.96 84.375 1920.8 54.7526 1954.29 33.1055C1987.79 11.2305 2028.35 0.292969 2075.97 0.292969C2123.6 0.292969 2164.16 11.2305 2197.65 33.1055C2231.15 54.7526 2255.99 84.375 2272.17 121.973C2288.34 159.57 2296.43 203.434 2296.43 253.564C2296.43 303.695 2288.34 347.559 2272.17 385.156C2255.99 422.754 2231.15 452.49 2197.65 474.365C2164.16 496.012 2123.6 506.836 2075.97 506.836C2028.35 506.836 1987.79 496.012 1954.29 474.365C1920.8 452.49 1895.96 422.754 1879.78 385.156ZM1951.22 97.7051C1922.51 134.391 1908.15 186.344 1908.15 253.564C1908.15 320.785 1922.51 372.852 1951.22 409.766C1979.93 446.68 2021.51 465.137 2075.97 465.137C2130.43 465.137 2172.02 446.68 2200.73 409.766C2229.67 372.852 2244.14 320.785 2244.14 253.564C2244.14 186.344 2229.67 134.391 2200.73 97.7051C2172.02 60.791 2130.43 42.334 2075.97 42.334C2021.51 42.334 1979.93 60.791 1951.22 97.7051Z" fill="white"/>
</svg>
