<svg width="114" height="90" viewBox="0 0 114 90" fill="none" xmlns="http://www.w3.org/2000/svg">
<path d="M77.4491 15.8176C77.2301 15.8228 77.0181 15.8679 76.8385 15.9473C76.659 16.0268 76.5195 16.1372 76.4368 16.2654C76.3541 16.3936 76.3317 16.5342 76.3722 16.6702C76.4128 16.8063 76.5145 16.9321 76.6654 17.0326L102.351 35.2801H9.12036C9.04932 35.2729 8.97765 35.2729 8.90661 35.2801C8.30971 35.3153 7.81753 35.6906 7.87349 36.0676C7.92945 36.4445 8.52346 36.7554 9.12036 36.7201H102.351L76.6654 54.9451C76.4622 55.0883 76.3575 55.2766 76.3742 55.4686C76.3909 55.6606 76.5277 55.8405 76.7544 55.9688C76.9812 56.0971 77.2794 56.1633 77.5833 56.1527C77.8873 56.1422 78.1722 56.0558 78.3754 55.9126L105.735 36.4726C105.926 36.3401 106.031 36.1676 106.031 35.9888C106.031 35.81 105.926 35.6375 105.735 35.5051L78.3754 16.0651C78.2612 15.9818 78.1184 15.9162 77.9578 15.8733C77.7972 15.8304 77.6232 15.8113 77.4491 15.8176Z" fill="white"/>
</svg>
