<svg width="20" height="20" viewBox="0 0 20 20" fill="none" xmlns="http://www.w3.org/2000/svg">
<path d="M18.028 3.35854C17.3488 3.67938 16.193 4.28104 15.6121 4.39604C15.5896 4.40188 15.5713 4.40938 15.5496 4.41521C14.8721 3.74688 13.9438 3.33271 12.9163 3.33271C10.8455 3.33271 9.16629 5.01188 9.16629 7.08271C9.16629 7.19188 9.15712 7.39271 9.16629 7.49938C6.48462 7.49938 4.52629 6.10021 3.06045 4.30188C2.86462 4.06021 2.65629 4.18604 2.61295 4.35771C2.51545 4.74604 2.48212 5.39521 2.48212 5.85854C2.48212 7.02604 3.39462 8.17271 4.81545 8.88354C4.55379 8.95104 4.26545 8.99938 3.96545 8.99938C3.61212 8.99938 3.20545 8.90688 2.84962 8.72021C2.71795 8.65104 2.43379 8.67021 2.51795 9.00688C2.85545 10.356 4.39545 11.3035 5.77129 11.5794C5.45879 11.7635 4.79212 11.726 4.48545 11.726C4.37212 11.726 3.97795 11.6994 3.72295 11.6677C3.49045 11.6394 3.13295 11.6994 3.43212 12.1527C4.07462 13.1252 5.52795 13.736 6.77879 13.7594C5.62712 14.6627 3.74379 14.9927 1.93962 14.9927C1.57462 14.9844 1.59295 15.4002 1.88712 15.5544C3.21795 16.2527 5.39795 16.666 6.95545 16.666C13.1471 16.666 16.6663 11.9469 16.6663 7.49854C16.6663 7.42688 16.6646 7.27688 16.6621 7.12604C16.6621 7.11104 16.6663 7.09688 16.6663 7.08188C16.6663 7.05938 16.6596 7.03771 16.6596 7.01521C16.6571 6.90188 16.6546 6.79604 16.6521 6.74104C17.143 6.38688 17.8946 5.77188 18.2746 5.30104C18.4038 5.14104 18.2996 4.94688 18.1238 5.00771C17.6713 5.16521 16.8888 5.47021 16.3988 5.52854C17.3796 4.87938 17.8646 4.31438 18.2813 3.68688C18.4238 3.47271 18.2455 3.25521 18.028 3.35854Z" fill="white"/>
</svg>
