<svg width="30" height="30" viewBox="0 0 30 30" fill="none" xmlns="http://www.w3.org/2000/svg">
<path d="M7.03125 18.75C7.03125 18.2322 6.61151 17.8125 6.09375 17.8125C5.57599 17.8125 5.15625 18.2322 5.15625 18.75H7.03125ZM24.0938 18.75C24.0938 18.2322 23.674 17.8125 23.1562 17.8125C22.6385 17.8125 22.2188 18.2322 22.2188 18.75H24.0938ZM15.3643 6.82657C15.6826 6.41832 15.6099 5.8292 15.2016 5.51075C14.7934 5.19232 14.2042 5.26513 13.8857 5.67339L15.3643 6.82657ZM9.01078 11.9234C8.69234 12.3316 8.76515 12.9207 9.17341 13.2392C9.58166 13.5576 10.1708 13.4849 10.4892 13.0766L9.01078 11.9234ZM15.3643 5.67339C15.0457 5.26513 14.4566 5.19232 14.0484 5.51075C13.6401 5.8292 13.5674 6.41832 13.8857 6.82657L15.3643 5.67339ZM18.7607 13.0766C19.0793 13.4849 19.6684 13.5576 20.0766 13.2392C20.4849 12.9207 20.5576 12.3316 20.2393 11.9234L18.7607 13.0766ZM15.5625 6.24998C15.5625 5.73222 15.1427 5.31248 14.625 5.31248C14.1073 5.31248 13.6875 5.73222 13.6875 6.24998H15.5625ZM13.6875 20C13.6875 20.5177 14.1073 20.9375 14.625 20.9375C15.1427 20.9375 15.5625 20.5177 15.5625 20H13.6875ZM5.15625 18.75V20H7.03125V18.75H5.15625ZM5.15625 20C5.15625 22.5664 7.19071 24.6875 9.75 24.6875V22.8125C8.27071 22.8125 7.03125 21.5759 7.03125 20H5.15625ZM9.75 24.6875H19.5V22.8125H9.75V24.6875ZM19.5 24.6875C22.0592 24.6875 24.0938 22.5664 24.0938 20H22.2188C22.2188 21.5759 20.9793 22.8125 19.5 22.8125V24.6875ZM24.0938 20V18.75H22.2188V20H24.0938ZM13.8857 5.67339L9.01078 11.9234L10.4892 13.0766L15.3643 6.82657L13.8857 5.67339ZM13.8857 6.82657L18.7607 13.0766L20.2393 11.9234L15.3643 5.67339L13.8857 6.82657ZM13.6875 6.24998V20H15.5625V6.24998H13.6875Z" fill="black"/>
</svg>
